# xmcd
#
# Track frame offsets:
#	150
#	15590
#	33525
#	46492
#
# Disc length: 829 seconds
#
# Revision: 2
# Processed by: cddbd v1.5.2PL0 Copyright (c) Steve Scherf et al.
# Submitted via: EasyCDDAExtractor 15.2.5.1
#
DISCID=2a033b04
DTITLE=Harmony James
DYEAR=2004
DGENRE=Country
TTITLE0=Tailwind
TTITLE1=Somebody Stole My Horse
TTITLE2=Big News
TTITLE3=Home
EXTD=YEAR: 2004
EXTT0=
EXTT1=
EXTT2=
EXTT3=
PLAYORDER=
